<svg width="170" height="170" viewBox="0 0 170 170" fill="none" xmlns="http://www.w3.org/2000/svg">
<path fill-rule="evenodd" clip-rule="evenodd" d="M61.0937 107.801L52.2396 118.866L16.8229 90.5323C15.9931 89.8687 15.3231 89.0269 14.8628 88.0693C14.4024 87.1117 14.1633 86.0628 14.1633 85.0002C14.1633 83.9377 14.4024 82.8887 14.8628 81.9311C15.3231 80.9735 15.9931 80.1317 16.8229 79.4681L52.2396 51.1348L61.0937 62.199L32.5904 85.0002L61.0937 107.801ZM108.906 62.199L117.76 51.1348L153.177 79.4681C154.007 80.1317 154.677 80.9735 155.137 81.9311C155.598 82.8887 155.837 83.9377 155.837 85.0002C155.837 86.0628 155.598 87.1117 155.137 88.0693C154.677 89.0269 154.007 89.8687 153.177 90.5323L117.76 118.866L108.906 107.801L137.41 85.0002L108.906 62.199Z" fill="#0F1035"/>
<path d="M77.7467 150.28L63.9129 147.206L78.0796 83.4561L92.2462 19.7061L106.08 22.7802L91.9133 86.5302L77.7467 150.28Z" fill="white"/>
</svg>
