<svg width="170" height="170" viewBox="0 0 170 170" fill="none" xmlns="http://www.w3.org/2000/svg">
<path d="M85 113.333C100.626 113.333 113.333 100.626 113.333 84.9998C113.333 69.374 100.626 56.6665 85 56.6665C69.3742 56.6665 56.6667 69.374 56.6667 84.9998C56.6667 100.626 69.3742 113.333 85 113.333ZM85 70.8332C92.6783 70.8332 99.1667 77.3215 99.1667 84.9998C99.1667 92.6782 92.6783 99.1665 85 99.1665C77.3217 99.1665 70.8333 92.6782 70.8333 84.9998C70.8333 77.3215 77.3217 70.8332 85 70.8332Z" fill="white"/>
<path d="M20.1521 114.297L27.2354 126.551C30.9967 133.046 40.0491 135.483 46.5729 131.722L50.32 129.554C54.418 132.778 58.9362 135.428 63.75 137.431V141.667C63.75 149.479 70.1037 155.833 77.9167 155.833H92.0833C99.8962 155.833 106.25 149.479 106.25 141.667V137.431C111.062 135.427 115.58 132.78 119.68 129.561L123.427 131.729C129.965 135.483 138.996 133.06 142.772 126.551L149.848 114.304C151.725 111.05 152.234 107.185 151.263 103.556C150.292 99.9278 147.921 96.8331 144.67 94.9519L141.093 92.8836C141.853 87.66 141.853 82.3538 141.093 77.1303L144.67 75.0619C147.92 73.1794 150.29 70.0847 151.26 66.4568C152.231 62.8289 151.723 58.9641 149.848 55.7103L142.772 43.4632C139.01 36.9465 129.965 34.5028 123.427 38.2782L119.68 40.4457C115.582 37.2221 111.064 34.5721 106.25 32.569V28.3332C106.25 20.5203 99.8962 14.1665 92.0833 14.1665H77.9167C70.1037 14.1665 63.75 20.5203 63.75 28.3332V32.569C58.9379 34.5725 54.42 37.2198 50.32 40.4386L46.5729 38.2711C40.0279 34.5098 30.9896 36.9465 27.2283 43.4561L20.1521 55.7032C18.2749 58.9565 17.7658 62.822 18.7366 66.4505C19.7075 70.0789 22.0789 73.1736 25.33 75.0548L28.9071 77.1232C28.1437 82.3442 28.1437 87.6484 28.9071 92.8694L25.33 94.9378C22.0799 96.8216 19.7096 99.9176 18.7389 103.547C17.7682 107.176 18.2764 111.042 20.1521 114.297ZM43.7112 94.7607C42.9114 91.5685 42.5047 88.2906 42.5 84.9998C42.5 81.7273 42.9108 78.4407 43.7042 75.239C44.0777 73.7467 43.9549 72.1734 43.3541 70.7572C42.7534 69.341 41.7076 68.1592 40.375 67.3907L32.4204 62.7865L39.4896 50.5394L47.6 55.2286C48.9226 55.9939 50.4578 56.3096 51.9751 56.1283C53.4924 55.9469 54.91 55.2783 56.015 54.2228C60.807 49.665 66.5857 46.2739 72.9016 44.3132C74.3525 43.8702 75.6228 42.9732 76.5256 41.7542C77.4284 40.5351 77.916 39.0585 77.9167 37.5415V28.3332H92.0833V37.5415C92.084 39.0585 92.5716 40.5351 93.4744 41.7542C94.3772 42.9732 95.6475 43.8702 97.0983 44.3132C103.413 46.2767 109.191 49.6675 113.985 54.2228C115.091 55.2762 116.509 55.9435 118.025 56.1247C119.542 56.306 121.077 55.9917 122.4 55.2286L130.503 50.5465L137.587 62.7936L129.625 67.3907C128.293 68.1601 127.248 69.342 126.647 70.7579C126.047 72.1738 125.923 73.7467 126.296 75.239C127.089 78.4407 127.5 81.7273 127.5 84.9998C127.5 88.2653 127.089 91.5519 126.289 94.7607C125.917 96.2537 126.041 97.8272 126.643 99.2432C127.245 100.659 128.292 101.841 129.625 102.609L137.58 107.206L130.51 119.453L122.4 114.771C121.078 114.005 119.542 113.688 118.025 113.87C116.507 114.051 115.089 114.72 113.985 115.777C109.193 120.335 103.414 123.726 97.0983 125.687C95.6475 126.129 94.3772 127.026 93.4744 128.246C92.5716 129.465 92.084 130.941 92.0833 132.458L92.0975 141.667H77.9167V132.458C77.916 130.941 77.4284 129.465 76.5256 128.246C75.6228 127.026 74.3525 126.129 72.9016 125.687C66.5869 123.723 60.8088 120.332 56.015 115.777C54.9121 114.717 53.4937 114.047 51.975 113.866C50.4563 113.686 48.9202 114.006 47.6 114.778L39.4967 119.467L32.4133 107.22L40.375 102.609C41.708 101.841 42.7546 100.659 43.3566 99.2432C43.9585 97.8272 44.083 96.2537 43.7112 94.7607Z" fill="#0F1035"/>
</svg>
